Coordinates
version=1
nRows=17
nColumns=40
inDegrees=yes

Units are S.I. units (second, meters, Newtons, ...)
If the header above contains a line with 'inDegrees', this indicates whether rotational values are in degrees (yes) or radians (no).

endheader
time	pelvis_tilt	pelvis_list	pelvis_rotation	pelvis_tx	pelvis_ty	pelvis_tz	hip_flexion_r	hip_adduction_r	hip_rotation_r	knee_angle_r	knee_angle_r_beta	ankle_angle_r	subtalar_angle_r	mtp_angle_r	hip_flexion_l	hip_adduction_l	hip_rotation_l	knee_angle_l	knee_angle_l_beta	ankle_angle_l	subtalar_angle_l	mtp_angle_l	lumbar_extension	lumbar_bending	lumbar_rotation	arm_flex_r	arm_add_r	arm_rot_r	elbow_flex_r	pro_sup_r	wrist_flex_r	wrist_dev_r	arm_flex_l	arm_add_l	arm_rot_l	elbow_flex_l	pro_sup_l	wrist_flex_l	wrist_dev_l
      3.00000000	    -25.82514498	      1.14926454	     -9.15725201	     -0.34140166	      0.96917885	     -1.06203618	      1.92038466	    -10.14272140	      3.06009881	     38.45376404	      0.67114479	     -8.61207699	      0.00000000	      0.00000000	     48.88104134	     -2.21425751	     -5.39117081	     40.50556163	      0.70695542	      5.15657002	      0.00000000	      0.00000000	      7.31912837	     -9.64078307	     13.59982335	     89.96431185	    -13.44933972	     15.89233795	     46.77125434	     60.53773801	      0.00000000	      0.00000000	     89.95240425	    -28.42892388	      6.86015597	     48.47688789	     70.60858540	      0.00000000	      0.00000000
      3.00500000	    -25.93900973	      1.22454340	     -9.21276263	     -0.34181791	      0.96855897	     -1.06197472	      2.06689358	    -10.14586442	      3.22577927	     38.47732210	      0.67155596	     -8.41210380	      0.00000000	      0.00000000	     49.10106619	     -2.16161503	     -5.25509766	     40.64421376	      0.70937535	      5.22039885	      0.00000000	      0.00000000	      7.44644332	     -9.64441723	     13.63783636	     89.96442519	    -13.21101945	     15.99601346	     46.81426127	     58.25380697	      0.00000000	      0.00000000	     89.95222376	    -28.43984784	      6.87493364	     48.54145152	     67.25214457	      0.00000000	      0.00000000
      3.01000000	    -25.86384233	      1.27334713	     -9.22469634	     -0.34184433	      0.96819759	     -1.06193644	      1.96038216	    -10.18924687	      3.14551712	     38.41708838	      0.67050468	     -8.46110241	      0.00000000	      0.00000000	     49.08617215	     -2.12879440	     -5.33676193	     40.77634604	      0.71168150	      5.41637070	      0.00000000	      0.00000000	      7.35765434	     -9.69156502	     13.70266858	     89.96449391	    -13.17858797	     16.19680866	     47.01173498	     56.65412088	      0.00000000	      0.00000000	     89.95237840	    -28.46971256	      7.12466594	     48.70099492	     64.92795928	      0.00000000	      0.00000000
      3.01500000	    -25.89099674	      1.33327270	     -9.25431441	     -0.34204074	      0.96775136	     -1.06193630	      1.96165728	    -10.22902816	      3.12042795	     38.31934757	      0.66879878	     -8.47891326	      0.00000000	      0.00000000	     49.18647742	     -2.09645203	     -5.35243433	     40.89485127	      0.71374980	      5.53203571	      0.00000000	      0.00000000	      7.35710362	     -9.69480423	     13.74548998	     89.96461307	    -13.10215872	     15.54117901	     46.80668025	     65.17796058	      0.00000000	      0.00000000	     89.95248145	    -28.66327921	      6.09440618	     48.39798740	     79.14502928	      0.00000000	      0.00000000
      3.02000000	    -25.91067939	      1.38238689	     -9.28755425	     -0.34236337	      0.96726044	     -1.06188960	      1.98883217	    -10.24156159	      3.13177205	     38.30801843	      0.66860105	     -8.40786939	      0.00000000	      0.00000000	     49.30976758	     -2.07299801	     -5.32766856	     41.05918234	      0.71661792	      5.59462068	      0.00000000	      0.00000000	      7.37749327	     -9.70477241	     13.80636249	     89.96471618	    -12.97644129	     15.77302423	     46.96650713	     62.07455433	      0.00000000	      0.00000000	     89.95246461	    -28.62455772	      6.35705649	     48.52763354	     74.10636384	      0.00000000	      0.00000000
      3.02500000	    -25.92047013	      1.41632287	     -9.26648274	     -0.34271011	      0.96683751	     -1.06195775	      1.98720529	    -10.22692828	      3.16726644	     38.31318652	      0.66869125	     -8.29001116	      0.00000000	      0.00000000	     49.41362891	     -2.00876384	     -5.24271290	     41.18620279	      0.71883485	      5.68480840	      0.00000000	      0.00000000	      7.35581786	     -9.71641913	     13.82582629	     89.96482522	    -12.91436477	     16.01460890	     47.13001495	     59.90404175	      0.00000000	      0.00000000	     89.95258258	    -28.56845228	      6.49270636	     48.64860990	     70.89171676	      0.00000000	      0.00000000
      3.03000000	    -25.99352800	      1.49516206	     -9.30449783	     -0.34298627	      0.96625968	     -1.06195629	      2.08827981	    -10.26451641	      3.19760854	     38.34294950	      0.66921071	     -8.15816165	      0.00000000	      0.00000000	     49.58216349	     -1.97005200	     -5.23059222	     41.32499466	      0.72125722	      5.69856308	      0.00000000	      0.00000000	      7.43244516	     -9.71991330	     13.86185415	     89.96499423	    -12.74100609	     15.53966622	     46.94305727	     64.96981508	      0.00000000	      0.00000000	     89.95256028	    -28.73197219	      5.82223849	     48.46212651	     78.79102982	      0.00000000	      0.00000000
      3.03500000	    -25.98277292	      1.53131441	     -9.32419369	     -0.34319746	      0.96578951	     -1.06200934	      2.06328053	    -10.27214945	      3.19482116	     38.31524237	      0.66872713	     -8.07351139	      0.00000000	      0.00000000	     49.65617138	     -1.93543830	     -5.20473778	     41.47585470	      0.72389022	      5.86025909	      0.00000000	      0.00000000	      7.40804407	     -9.71063926	     13.88972189	     89.96511216	    -12.62461812	     15.76270281	     47.14106035	     62.35140999	      0.00000000	      0.00000000	     89.95256149	    -28.74962154	      6.04189328	     48.55121737	     75.11493011	      0.00000000	      0.00000000
      3.04000000	    -26.03915737	      1.56363455	     -9.34398870	     -0.34359100	      0.96526319	     -1.06202688	      2.15339236	    -10.22008766	      3.33606555	     38.37748204	      0.66981342	     -7.89330761	      0.00000000	      0.00000000	     49.81884870	     -1.89753402	     -5.05714628	     41.61154556	      0.72625848	      5.82354754	      0.00000000	      0.00000000	      7.45853157	     -9.68066900	     13.90014086	     89.96531097	    -12.38941897	     15.82466512	     47.13552616	     59.95408725	      0.00000000	      0.00000000	     89.95257005	    -28.67634234	      5.99744088	     48.56021087	     71.64170698	      0.00000000	      0.00000000
      3.04500000	    -26.01843600	      1.63725394	     -9.34855525	     -0.34377290	      0.96480834	     -1.06211901	      2.11028790	    -10.29223404	      3.23395674	     38.30516041	      0.66855117	     -7.91766775	      0.00000000	      0.00000000	     49.86949949	     -1.83449945	     -5.14325842	     41.71531210	      0.72806954	      6.04810130	      0.00000000	      0.00000000	      7.40771572	     -9.73019666	     13.97096026	     89.96538061	    -12.45587317	     15.59925642	     47.21351635	     64.02801873	      0.00000000	      0.00000000	     89.95271967	    -28.76254368	      5.52867162	     48.52928317	     78.66275686	      0.00000000	      0.00000000
      3.05000000	    -26.04559113	      1.72364435	     -9.42446279	     -0.34394865	      0.96426698	     -1.06202953	      2.14605023	    -10.32362426	      3.35597452	     38.29182363	      0.66831840	     -7.81036263	      0.00000000	      0.00000000	     49.97084868	     -1.82134017	     -5.20727522	     41.84992513	      0.73041899	      6.16955375	      0.00000000	      0.00000000	      7.44992869	     -9.76414367	     14.06494955	     89.96546838	    -12.32038437	     15.79622582	     47.33281647	     61.61390244	      0.00000000	      0.00000000	     89.95275795	    -28.78667874	      5.77112522	     48.61870372	     74.89107706	      0.00000000	      0.00000000
      3.05500000	    -26.06364107	      1.76109045	     -9.42527721	     -0.34422831	      0.96375639	     -1.06210915	      2.16528778	    -10.32181052	      3.36331275	     38.30317961	      0.66851660	     -7.76129993	      0.00000000	      0.00000000	     50.07927812	     -1.77295965	     -5.15750036	     41.99439770	      0.73294051	      6.28958481	      0.00000000	      0.00000000	      7.45591256	     -9.76401560	     14.08852311	     89.96557739	    -12.22018600	     15.93755771	     47.50636710	     59.45243555	      0.00000000	      0.00000000	     89.95278973	    -28.75993537	      5.90135370	     48.72177071	     71.71378648	      0.00000000	      0.00000000
      3.06000000	    -26.11319183	      1.80813621	     -9.45425379	     -0.34457532	      0.96326237	     -1.06208622	      2.24345281	    -10.29858675	      3.43235638	     38.33596041	      0.66908873	     -7.67280280	      0.00000000	      0.00000000	     50.21395705	     -1.75613962	     -5.13896473	     42.11041109	      0.73496532	      6.35325527	      0.00000000	      0.00000000	      7.48121062	     -9.75478783	     14.11034208	     89.96574358	    -12.10573862	     15.57426694	     47.40710771	     63.41888455	      0.00000000	      0.00000000	     89.95290029	    -28.83445466	      5.26765815	     48.55686157	     78.28250338	      0.00000000	      0.00000000
      3.06500000	    -26.13418875	      1.82394600	     -9.44385460	     -0.34488297	      0.96276819	     -1.06215022	      2.25605497	    -10.26939348	      3.43501241	     38.34174830	      0.66918975	     -7.65996032	      0.00000000	      0.00000000	     50.32204191	     -1.73408573	     -5.12349201	     42.23823921	      0.73719634	      6.43596621	      0.00000000	      0.00000000	      7.48443027	     -9.73291570	     14.10672717	     89.96582891	    -12.01040246	     15.79591107	     47.56029881	     60.59115968	      0.00000000	      0.00000000	     89.95295675	    -28.82048819	      5.57115177	     48.68646057	     73.44811818	      0.00000000	      0.00000000
      3.07000000	    -26.23350928	      1.86844813	     -9.46260871	     -0.34531811	      0.96213733	     -1.06212920	      2.39878357	    -10.22668213	      3.53206060	     38.41941019	      0.67054520	     -7.55103058	      0.00000000	      0.00000000	     50.53447938	     -1.70786553	     -5.04649170	     42.39055187	      0.73985470	      6.46280292	      0.00000000	      0.00000000	      7.56530763	     -9.72322297	     14.14923991	     89.96601288	    -11.84598956	     15.85786643	     47.65613403	     58.52180364	      0.00000000	      0.00000000	     89.95299779	    -28.77660119	      5.64923032	     48.78318169	     70.29382499	      0.00000000	      0.00000000
      3.07500000	    -26.30308840	      1.88787426	     -9.46206534	     -0.34565204	      0.96160313	     -1.06213221	      2.47041946	    -10.17378639	      3.58118084	     38.42897499	      0.67071214	     -7.48514029	      0.00000000	      0.00000000	     50.68985149	     -1.70383944	     -5.02930026	     42.51623618	      0.74204831	      6.53471193	      0.00000000	      0.00000000	      7.61842994	     -9.69268301	     14.16670809	     89.96609505	    -11.75131012	     15.93916192	     47.81061178	     56.78403551	      0.00000000	      0.00000000	     89.95307534	    -28.78254254	      5.78443213	     48.89569158	     67.51419334	      0.00000000	      0.00000000
      3.08000000	    -26.37028746	      1.96377477	     -9.49772129	     -0.34598196	      0.96111190	     -1.06208737	      2.56308521	    -10.18828823	      3.63187296	     38.42208729	      0.67059193	     -7.48940437	      0.00000000	      0.00000000	     50.82912401	     -1.66832926	     -5.02902132	     42.60214028	      0.74354762	      6.65903729	      0.00000000	      0.00000000	      7.65994312	     -9.71932290	     14.19780117	     89.96624967	    -11.65741962	     15.40545345	     47.64650016	     62.99051627	      0.00000000	      0.00000000	     89.95314953	    -28.91190167	      4.90428847	     48.70810086	     77.85026668	      0.00000000	      0.00000000
